<?xml version="1.0" encoding="UTF-8" ?>
<!DOCTYPE svg PUBLIC "-//W3C//DTD SVG 1.1//EN" "http://www.w3.org/Graphics/SVG/1.1/DTD/svg11.dtd">
<svg width="335pt" height="335pt" viewBox="0 0 335 335" version="1.1" xmlns="http://www.w3.org/2000/svg">
<g id="#060c2cff">
<path fill="#060c2c" opacity="1.00" d=" M 0.00 0.00 L 335.00 0.00 L 335.00 335.00 L 0.00 335.00 L 0.00 0.00 M 128.40 94.40 C 110.45 112.49 93.19 131.33 75.31 149.50 C 75.22 152.35 75.23 155.20 75.14 158.06 C 74.87 159.72 74.77 161.40 74.72 163.08 C 74.93 163.61 75.33 164.67 75.54 165.20 C 94.36 188.92 112.59 213.15 131.48 236.81 L 131.55 237.56 C 146.04 237.50 160.52 237.57 175.01 237.53 C 169.27 228.82 162.63 220.73 156.48 212.31 C 157.10 210.62 157.74 208.94 158.37 207.26 L 158.99 208.19 C 159.31 208.30 159.93 208.50 160.25 208.61 C 161.92 203.97 164.16 199.56 166.08 195.03 C 167.11 192.94 168.13 190.84 168.79 188.60 C 169.13 188.56 169.80 188.48 170.14 188.43 C 175.50 196.36 181.40 203.92 186.96 211.71 C 199.80 211.79 212.65 211.79 225.49 211.72 C 226.92 214.90 228.70 217.94 229.70 221.30 L 230.30 221.65 C 232.18 227.07 235.15 232.04 236.99 237.49 C 249.63 237.72 262.28 237.51 274.93 237.59 C 274.34 236.04 273.73 234.51 273.09 232.99 C 271.17 228.54 269.08 224.16 267.30 219.65 L 266.49 219.34 C 266.49 218.99 266.50 218.29 266.51 217.94 C 265.84 216.70 265.22 215.43 264.61 214.17 C 262.67 209.34 260.44 204.64 258.37 199.87 C 257.79 198.62 257.25 197.37 256.69 196.13 C 254.65 191.82 252.84 187.41 250.87 183.07 C 249.88 180.73 248.86 178.39 247.71 176.12 C 244.91 169.72 242.09 163.32 239.28 156.93 C 236.09 150.76 233.96 144.10 230.63 138.01 C 230.59 137.74 230.51 137.21 230.47 136.95 C 227.41 131.08 225.09 124.87 222.31 118.88 C 221.21 116.56 220.12 114.25 219.14 111.88 C 217.20 107.55 215.26 103.21 213.39 98.84 C 212.69 97.34 211.99 95.85 211.30 94.35 C 183.67 94.58 156.01 93.80 128.40 94.40 M 114.11 221.99 C 113.72 223.33 113.26 224.64 112.74 225.94 C 110.96 229.81 109.22 233.70 107.59 237.64 C 113.77 237.53 119.94 237.68 126.11 237.53 C 122.44 232.84 118.57 228.29 115.24 223.34 L 114.39 223.61 C 114.32 223.21 114.18 222.40 114.11 221.99 Z" />
</g>
<g id="#ffffffff">
<path fill="#ffffff" opacity="1.00" d=" M 128.40 94.40 C 156.01 93.80 183.67 94.58 211.30 94.35 C 211.99 95.85 212.69 97.34 213.39 98.84 C 215.26 103.21 217.20 107.55 219.14 111.88 C 220.12 114.25 221.21 116.56 222.31 118.88 C 225.09 124.87 227.41 131.08 230.47 136.95 C 230.51 137.21 230.59 137.74 230.63 138.01 C 233.96 144.10 236.09 150.76 239.28 156.93 C 242.09 163.32 244.91 169.72 247.71 176.12 C 248.86 178.39 249.88 180.73 250.87 183.07 C 252.84 187.41 254.65 191.82 256.69 196.13 C 257.25 197.37 257.79 198.62 258.37 199.87 C 260.44 204.64 262.67 209.34 264.61 214.17 C 265.22 215.43 265.84 216.70 266.51 217.94 C 266.50 218.29 266.49 218.99 266.49 219.34 L 267.30 219.65 C 269.08 224.16 271.17 228.54 273.09 232.99 C 273.73 234.51 274.34 236.04 274.93 237.59 C 262.28 237.51 249.63 237.72 236.99 237.49 C 235.15 232.04 232.18 227.07 230.30 221.65 L 229.70 221.30 C 228.70 217.94 226.92 214.90 225.49 211.72 C 212.65 211.79 199.80 211.79 186.96 211.71 C 181.40 203.92 175.50 196.36 170.14 188.43 C 169.80 188.48 169.13 188.56 168.79 188.60 C 168.13 190.84 167.11 192.94 166.08 195.03 C 164.16 199.56 161.92 203.97 160.25 208.61 C 159.93 208.50 159.31 208.30 158.99 208.19 L 158.37 207.26 C 150.73 196.73 142.87 186.36 135.08 175.93 C 136.81 171.51 138.83 167.21 140.78 162.88 C 143.65 156.64 146.26 150.28 149.17 144.06 C 152.70 136.40 155.82 128.56 159.44 120.94 C 162.65 114.09 165.24 106.94 168.87 100.29 C 160.56 107.83 153.52 116.62 145.57 124.51 C 135.50 135.38 125.26 146.08 115.18 156.94 C 128.93 175.40 142.74 193.83 156.48 212.31 C 162.63 220.73 169.27 228.82 175.01 237.53 C 160.52 237.57 146.04 237.50 131.55 237.56 L 131.48 236.81 C 112.59 213.15 94.36 188.92 75.54 165.20 C 75.33 164.67 74.93 163.61 74.72 163.08 C 74.77 161.40 74.87 159.72 75.14 158.06 C 75.23 155.20 75.22 152.35 75.31 149.50 C 93.19 131.33 110.45 112.49 128.40 94.40 M 187.90 145.99 C 187.24 147.71 186.43 149.37 185.52 150.96 C 185.48 151.22 185.42 151.74 185.39 151.99 C 182.01 158.10 180.04 164.89 176.57 170.96 C 176.55 171.23 176.52 171.77 176.51 172.04 C 174.90 174.60 173.64 177.39 173.04 180.36 C 185.67 180.35 198.31 180.33 210.94 180.37 C 209.31 174.31 206.29 168.67 203.51 163.06 C 203.48 162.79 203.42 162.25 203.40 161.98 C 200.66 157.16 198.73 151.94 196.34 146.96 C 195.48 144.99 194.60 143.04 193.63 141.12 C 193.09 139.88 192.56 138.63 192.03 137.38 C 190.33 140.09 189.23 143.10 187.90 145.99 Z" />
</g>
<g id="#090d2cff">
<path fill="#090d2c" opacity="1.00" d=" M 145.57 124.51 C 153.52 116.62 160.56 107.83 168.87 100.29 C 165.24 106.94 162.65 114.09 159.44 120.94 C 155.82 128.56 152.70 136.40 149.17 144.06 C 146.26 150.28 143.65 156.64 140.78 162.88 C 138.83 167.21 136.81 171.51 135.08 175.93 C 142.87 186.36 150.73 196.73 158.37 207.26 C 157.74 208.94 157.10 210.62 156.48 212.31 C 142.74 193.83 128.93 175.40 115.18 156.94 C 125.26 146.08 135.50 135.38 145.57 124.51 Z" />
</g>
<g id="#070c2dff">
<path fill="#070c2d" opacity="1.00" d=" M 187.90 145.99 C 189.23 143.10 190.33 140.09 192.03 137.38 C 192.56 138.63 193.09 139.88 193.63 141.12 C 194.60 143.04 195.48 144.99 196.34 146.96 C 198.73 151.94 200.66 157.16 203.40 161.98 C 203.42 162.25 203.48 162.79 203.51 163.06 C 206.29 168.67 209.31 174.31 210.94 180.37 C 198.31 180.33 185.67 180.35 173.04 180.36 C 173.64 177.39 174.90 174.60 176.51 172.04 C 176.52 171.77 176.55 171.23 176.57 170.96 C 180.04 164.89 182.01 158.10 185.39 151.99 C 185.42 151.74 185.48 151.22 185.52 150.96 C 186.43 149.37 187.24 147.71 187.90 145.99 Z" />
</g>
<g id="#fbfdfbff">
<path fill="#fbfdfb" opacity="1.00" d=" M 114.11 221.99 C 114.18 222.40 114.32 223.21 114.39 223.61 L 115.24 223.34 C 118.57 228.29 122.44 232.84 126.11 237.53 C 119.94 237.68 113.77 237.53 107.59 237.64 C 109.22 233.70 110.96 229.81 112.74 225.94 C 113.26 224.64 113.72 223.33 114.11 221.99 Z" />
</g>
</svg>
