<?xml version="1.0" encoding="UTF-8" ?>
<!DOCTYPE svg PUBLIC "-//W3C//DTD SVG 1.1//EN" "http://www.w3.org/Graphics/SVG/1.1/DTD/svg11.dtd">
<svg width="214pt" height="214pt" viewBox="0 0 214 214" version="1.1" xmlns="http://www.w3.org/2000/svg">
<g id="#060c2cff">
</g>
<g id="#feffffff">
<path fill="#feffff" opacity="1.00" d=" M 62.37 31.29 C 90.01 31.03 117.67 31.35 145.31 31.45 C 158.95 61.64 172.26 91.97 185.83 122.18 C 193.42 139.69 201.58 156.95 208.93 174.57 C 196.38 174.60 183.83 174.58 171.27 174.58 C 167.39 166.04 163.57 157.47 159.67 148.94 C 146.86 148.52 134.03 148.89 121.21 148.75 C 115.05 141.08 109.59 132.86 103.64 125.03 C 99.79 131.69 97.17 138.97 93.97 145.94 C 85.39 135.16 77.37 123.91 69.11 112.88 C 75.85 96.86 83.32 81.17 90.13 65.18 C 94.51 56.02 98.17 46.53 102.69 37.43 C 97.28 42.44 92.29 47.89 87.37 53.37 C 74.58 66.82 61.87 80.34 49.24 93.92 C 69.06 120.87 89.43 147.43 109.10 174.48 C 96.03 174.63 82.96 174.47 69.90 174.57 C 68.17 174.46 65.89 175.05 64.86 173.21 C 46.46 149.59 28.08 125.95 9.75 102.29 C 8.65 97.26 9.21 91.72 9.47 86.54 C 27.05 68.07 44.66 49.63 62.37 31.29 M 125.62 74.74 C 119.80 87.55 114.25 100.48 108.35 113.25 C 107.75 114.55 107.38 115.94 107.02 117.32 C 119.68 117.37 132.34 117.38 145.00 117.32 C 141.36 106.42 135.55 96.36 131.17 85.74 C 129.41 82.03 128.01 78.11 125.62 74.74 Z" />
<path fill="#feffff" opacity="1.00" d=" M 41.81 174.57 C 43.84 169.59 45.42 164.21 48.76 159.92 C 52.42 164.87 56.28 169.66 60.03 174.54 C 53.95 174.63 47.88 174.61 41.81 174.57 Z" />
</g>
</svg>
